<mxfile version="13.3.9" type="github" host="app.diagrams.net" modified="2020-07-09T03:46:59.781Z" agent="5.0 (Windows NT 10.0; Win64; x64) AppleWebKit/537.36 (KHTML, like Gecko) Chrome/70.0.3538.102 Safari/537.36 Edge/18.18363" etag="W_bx5feBnwEYa1_07Krd" pages="3">
  <diagram id="GYQ3esFa7Fkubw0HNPwo" name="账户注册流程">
    <mxGraphModel grid="1" dx="1422" dy="792" gridSize="10" guides="1" tooltips="1" connect="1" arrows="1" fold="1" page="1" pageScale="1" pageWidth="1169" pageHeight="1654" math="0" shadow="0">
      <root>
        <mxCell id="0" />
        <mxCell id="1" parent="0" />
        <mxCell id="BtzCkjP8iLu_ngS16PPi-79" value="账号注册流程" parent="1" style="swimlane;rounded=1;shadow=0;glass=0;comic=0;labelBackgroundColor=#E6E6E6;strokeColor=#808080;fontColor=#000000;" vertex="1">
          <mxGeometry as="geometry" width="890" height="770" x="40" y="50">
            <mxRectangle as="alternateBounds" width="100" height="23" x="40" y="50" />
          </mxGeometry>
        </mxCell>
        <mxCell id="BtzCkjP8iLu_ngS16PPi-16" value="注册账号页" parent="BtzCkjP8iLu_ngS16PPi-79" style="rounded=1;whiteSpace=wrap;html=1;" vertex="1">
          <mxGeometry as="geometry" width="140" height="60" x="480" y="30" />
        </mxCell>
        <mxCell id="BtzCkjP8iLu_ngS16PPi-19" value="输入账号" parent="BtzCkjP8iLu_ngS16PPi-79" style="rounded=0;whiteSpace=wrap;html=1;" vertex="1">
          <mxGeometry as="geometry" width="140" height="60" x="480" y="130" />
        </mxCell>
        <mxCell id="BtzCkjP8iLu_ngS16PPi-20" value="" parent="BtzCkjP8iLu_ngS16PPi-79" style="edgeStyle=orthogonalEdgeStyle;rounded=0;orthogonalLoop=1;jettySize=auto;html=1;" edge="1" source="BtzCkjP8iLu_ngS16PPi-16" target="BtzCkjP8iLu_ngS16PPi-19">
          <mxGeometry as="geometry" relative="1" />
        </mxCell>
        <mxCell id="BtzCkjP8iLu_ngS16PPi-82" parent="BtzCkjP8iLu_ngS16PPi-79" style="edgeStyle=orthogonalEdgeStyle;rounded=0;orthogonalLoop=1;jettySize=auto;html=1;entryX=0.5;entryY=0;entryDx=0;entryDy=0;strokeColor=#000000;fontColor=#000000;" edge="1" source="BtzCkjP8iLu_ngS16PPi-22" target="BtzCkjP8iLu_ngS16PPi-18">
          <mxGeometry as="geometry" relative="1">
            <Array as="points">
              <mxPoint x="330" y="240" />
              <mxPoint x="550" y="240" />
            </Array>
          </mxGeometry>
        </mxCell>
        <mxCell id="BtzCkjP8iLu_ngS16PPi-83" value="修改账号" parent="BtzCkjP8iLu_ngS16PPi-82" style="edgeLabel;html=1;align=center;verticalAlign=middle;resizable=0;points=[];fontColor=#000000;" vertex="1" connectable="0">
          <mxGeometry as="geometry" x="-0.2074" y="-1" relative="1">
            <mxPoint as="offset" />
          </mxGeometry>
        </mxCell>
        <mxCell id="BtzCkjP8iLu_ngS16PPi-22" value="提示账号已存在" parent="BtzCkjP8iLu_ngS16PPi-79" style="rounded=0;whiteSpace=wrap;html=1;" vertex="1">
          <mxGeometry as="geometry" width="140" height="60" x="260" y="270" />
        </mxCell>
        <mxCell id="BtzCkjP8iLu_ngS16PPi-18" value="判断账号是否已存在" parent="BtzCkjP8iLu_ngS16PPi-79" style="rhombus;whiteSpace=wrap;html=1;" vertex="1">
          <mxGeometry as="geometry" width="140" height="60" x="480" y="270" />
        </mxCell>
        <mxCell id="BtzCkjP8iLu_ngS16PPi-21" value="" parent="BtzCkjP8iLu_ngS16PPi-79" style="edgeStyle=orthogonalEdgeStyle;rounded=0;orthogonalLoop=1;jettySize=auto;html=1;" edge="1" source="BtzCkjP8iLu_ngS16PPi-19" target="BtzCkjP8iLu_ngS16PPi-18">
          <mxGeometry as="geometry" relative="1" />
        </mxCell>
        <mxCell id="BtzCkjP8iLu_ngS16PPi-23" value="存在" parent="BtzCkjP8iLu_ngS16PPi-79" style="edgeStyle=orthogonalEdgeStyle;rounded=0;orthogonalLoop=1;jettySize=auto;html=1;" edge="1" source="BtzCkjP8iLu_ngS16PPi-18" target="BtzCkjP8iLu_ngS16PPi-22">
          <mxGeometry as="geometry" relative="1" />
        </mxCell>
        <mxCell id="BtzCkjP8iLu_ngS16PPi-31" value="返回其他页面" parent="BtzCkjP8iLu_ngS16PPi-79" style="rounded=1;whiteSpace=wrap;html=1;" vertex="1">
          <mxGeometry as="geometry" width="140" height="60" x="40" y="270" />
        </mxCell>
        <mxCell id="BtzCkjP8iLu_ngS16PPi-32" value="返回" parent="BtzCkjP8iLu_ngS16PPi-79" style="edgeStyle=orthogonalEdgeStyle;rounded=0;orthogonalLoop=1;jettySize=auto;html=1;" edge="1" source="BtzCkjP8iLu_ngS16PPi-22" target="BtzCkjP8iLu_ngS16PPi-31">
          <mxGeometry as="geometry" relative="1" />
        </mxCell>
        <mxCell id="BtzCkjP8iLu_ngS16PPi-34" value="判断账号格式" parent="BtzCkjP8iLu_ngS16PPi-79" style="rhombus;whiteSpace=wrap;html=1;" vertex="1">
          <mxGeometry as="geometry" width="140" height="60" x="480" y="370" />
        </mxCell>
        <mxCell id="BtzCkjP8iLu_ngS16PPi-35" value="不存在" parent="BtzCkjP8iLu_ngS16PPi-79" style="edgeStyle=orthogonalEdgeStyle;rounded=0;orthogonalLoop=1;jettySize=auto;html=1;" edge="1" source="BtzCkjP8iLu_ngS16PPi-18" target="BtzCkjP8iLu_ngS16PPi-34">
          <mxGeometry as="geometry" relative="1" />
        </mxCell>
        <mxCell id="BtzCkjP8iLu_ngS16PPi-58" value="弹出一键登录提示框" parent="BtzCkjP8iLu_ngS16PPi-79" style="rounded=0;whiteSpace=wrap;html=1;" vertex="1">
          <mxGeometry as="geometry" width="140" height="60" x="260" y="470" />
        </mxCell>
        <mxCell id="BtzCkjP8iLu_ngS16PPi-60" parent="BtzCkjP8iLu_ngS16PPi-79" style="edgeStyle=orthogonalEdgeStyle;rounded=0;orthogonalLoop=1;jettySize=auto;html=1;entryX=0.5;entryY=0;entryDx=0;entryDy=0;strokeColor=#000000;fontColor=#000000;" edge="1" source="BtzCkjP8iLu_ngS16PPi-34" target="BtzCkjP8iLu_ngS16PPi-58">
          <mxGeometry as="geometry" relative="1" />
        </mxCell>
        <mxCell id="BtzCkjP8iLu_ngS16PPi-62" value="本机手机号" parent="BtzCkjP8iLu_ngS16PPi-60" style="edgeLabel;html=1;align=center;verticalAlign=middle;resizable=0;points=[];fontColor=#000000;" vertex="1" connectable="0">
          <mxGeometry as="geometry" x="-0.4703" y="3" relative="1">
            <mxPoint as="offset" />
          </mxGeometry>
        </mxCell>
        <mxCell id="BtzCkjP8iLu_ngS16PPi-66" value="一键登录页面" parent="BtzCkjP8iLu_ngS16PPi-79" style="rounded=0;whiteSpace=wrap;html=1;" vertex="1">
          <mxGeometry as="geometry" width="140" height="60" x="260" y="580" />
        </mxCell>
        <mxCell id="BtzCkjP8iLu_ngS16PPi-68" value="前往一键登录" parent="BtzCkjP8iLu_ngS16PPi-79" style="edgeStyle=orthogonalEdgeStyle;rounded=0;orthogonalLoop=1;jettySize=auto;html=1;strokeColor=#000000;fontColor=#000000;" edge="1" source="BtzCkjP8iLu_ngS16PPi-58" target="BtzCkjP8iLu_ngS16PPi-66">
          <mxGeometry as="geometry" relative="1" />
        </mxCell>
        <mxCell id="BtzCkjP8iLu_ngS16PPi-72" value="一键登录流程" parent="BtzCkjP8iLu_ngS16PPi-79" style="shape=process;whiteSpace=wrap;html=1;backgroundOutline=1;rounded=1;labelBackgroundColor=#E6E6E6;strokeColor=#808080;fontColor=#000000;" vertex="1">
          <mxGeometry as="geometry" width="140" height="60" x="260" y="690" />
        </mxCell>
        <mxCell id="BtzCkjP8iLu_ngS16PPi-73" value="" parent="BtzCkjP8iLu_ngS16PPi-79" style="edgeStyle=orthogonalEdgeStyle;rounded=0;orthogonalLoop=1;jettySize=auto;html=1;strokeColor=#000000;fontColor=#000000;" edge="1" source="BtzCkjP8iLu_ngS16PPi-66" target="BtzCkjP8iLu_ngS16PPi-72">
          <mxGeometry as="geometry" relative="1" />
        </mxCell>
        <mxCell id="BtzCkjP8iLu_ngS16PPi-77" value="注册&amp;amp;登录成功" parent="BtzCkjP8iLu_ngS16PPi-79" style="rounded=1;whiteSpace=wrap;html=1;" vertex="1">
          <mxGeometry as="geometry" width="140" height="60" x="480" y="690" />
        </mxCell>
        <mxCell id="BtzCkjP8iLu_ngS16PPi-70" value="手机登录流程" parent="BtzCkjP8iLu_ngS16PPi-79" style="shape=process;whiteSpace=wrap;html=1;backgroundOutline=1;rounded=1;labelBackgroundColor=#E6E6E6;strokeColor=#808080;fontColor=#000000;" vertex="1">
          <mxGeometry as="geometry" width="140" height="60" x="700" y="690" />
        </mxCell>
        <mxCell id="BtzCkjP8iLu_ngS16PPi-67" value="手机登录页面" parent="BtzCkjP8iLu_ngS16PPi-79" style="rounded=0;whiteSpace=wrap;html=1;" vertex="1">
          <mxGeometry as="geometry" width="140" height="60" x="700" y="580" />
        </mxCell>
        <mxCell id="BtzCkjP8iLu_ngS16PPi-71" value="" parent="BtzCkjP8iLu_ngS16PPi-79" style="edgeStyle=orthogonalEdgeStyle;rounded=0;orthogonalLoop=1;jettySize=auto;html=1;strokeColor=#000000;fontColor=#000000;" edge="1" source="BtzCkjP8iLu_ngS16PPi-67" target="BtzCkjP8iLu_ngS16PPi-70">
          <mxGeometry as="geometry" relative="1" />
        </mxCell>
        <mxCell id="BtzCkjP8iLu_ngS16PPi-59" value="弹出手机登录提示框" parent="BtzCkjP8iLu_ngS16PPi-79" style="rounded=0;whiteSpace=wrap;html=1;" vertex="1">
          <mxGeometry as="geometry" width="140" height="60" x="700" y="470" />
        </mxCell>
        <mxCell id="BtzCkjP8iLu_ngS16PPi-61" parent="BtzCkjP8iLu_ngS16PPi-79" style="edgeStyle=orthogonalEdgeStyle;rounded=0;orthogonalLoop=1;jettySize=auto;html=1;strokeColor=#000000;fontColor=#000000;" edge="1" source="BtzCkjP8iLu_ngS16PPi-34" target="BtzCkjP8iLu_ngS16PPi-59">
          <mxGeometry as="geometry" relative="1" />
        </mxCell>
        <mxCell id="BtzCkjP8iLu_ngS16PPi-63" value="非本机手机号" parent="BtzCkjP8iLu_ngS16PPi-61" style="edgeLabel;html=1;align=center;verticalAlign=middle;resizable=0;points=[];fontColor=#000000;" vertex="1" connectable="0">
          <mxGeometry as="geometry" x="-0.2956" relative="1">
            <mxPoint as="offset" />
          </mxGeometry>
        </mxCell>
        <mxCell id="BtzCkjP8iLu_ngS16PPi-69" value="前往手机登录" parent="BtzCkjP8iLu_ngS16PPi-79" style="edgeStyle=orthogonalEdgeStyle;rounded=0;orthogonalLoop=1;jettySize=auto;html=1;strokeColor=#000000;fontColor=#000000;" edge="1" source="BtzCkjP8iLu_ngS16PPi-59" target="BtzCkjP8iLu_ngS16PPi-67">
          <mxGeometry as="geometry" relative="1" />
        </mxCell>
        <mxCell id="BtzCkjP8iLu_ngS16PPi-54" value="&lt;span style=&quot;font: 12px / 1.2 &amp;#34;helvetica&amp;#34; ; text-align: center ; color: rgb(128 , 128 , 128) ; text-transform: none ; text-indent: 0px ; letter-spacing: normal ; text-decoration: none ; word-spacing: 0px ; display: inline ; font-stretch: normal ; float: none ; overflow-wrap: normal&quot;&gt;判断时机点：&lt;br&gt;用户账号输入完毕失去焦点；&lt;br&gt;或点击输入密码时&lt;/span&gt;" parent="BtzCkjP8iLu_ngS16PPi-79" style="text;html=1;strokeColor=none;fillColor=none;spacing=5;spacingTop=-20;whiteSpace=wrap;overflow=hidden;rounded=0;fontColor=#808080;verticalAlign=bottom;labelBorderColor=none;labelBackgroundColor=#E6E6E6;" vertex="1">
          <mxGeometry as="geometry" width="170" height="50" x="710" y="280" />
        </mxCell>
        <mxCell id="BtzCkjP8iLu_ngS16PPi-48" parent="BtzCkjP8iLu_ngS16PPi-79" style="edgeStyle=orthogonalEdgeStyle;rounded=0;orthogonalLoop=1;jettySize=auto;html=1;exitX=0.5;exitY=0;exitDx=0;exitDy=0;curved=1;entryX=0;entryY=0.75;entryDx=0;entryDy=0;dashed=1;dashPattern=1 2;strokeColor=#808080;" edge="1" source="BtzCkjP8iLu_ngS16PPi-34" target="BtzCkjP8iLu_ngS16PPi-54">
          <mxGeometry as="geometry" relative="1">
            <mxPoint as="targetPoint" x="740" y="317.4999999999998" />
          </mxGeometry>
        </mxCell>
        <mxCell id="BtzCkjP8iLu_ngS16PPi-50" parent="BtzCkjP8iLu_ngS16PPi-79" style="edgeStyle=orthogonalEdgeStyle;curved=1;rounded=0;orthogonalLoop=1;jettySize=auto;html=1;dashed=1;dashPattern=1 2;strokeColor=#808080;exitX=0.5;exitY=0;exitDx=0;exitDy=0;entryX=0;entryY=0.25;entryDx=0;entryDy=0;" edge="1" source="BtzCkjP8iLu_ngS16PPi-18" target="BtzCkjP8iLu_ngS16PPi-54">
          <mxGeometry as="geometry" relative="1">
            <mxPoint as="targetPoint" x="720" y="292" />
          </mxGeometry>
        </mxCell>
        <mxCell id="BtzCkjP8iLu_ngS16PPi-55" value="继续输入密码" parent="BtzCkjP8iLu_ngS16PPi-79" style="rounded=0;whiteSpace=wrap;html=1;" vertex="1">
          <mxGeometry as="geometry" width="140" height="60" x="480" y="470" />
        </mxCell>
        <mxCell id="BtzCkjP8iLu_ngS16PPi-56" value="非手机号" parent="BtzCkjP8iLu_ngS16PPi-79" style="edgeStyle=orthogonalEdgeStyle;curved=1;rounded=0;orthogonalLoop=1;jettySize=auto;html=1;strokeColor=#000000;fontColor=#000000;" edge="1" source="BtzCkjP8iLu_ngS16PPi-34" target="BtzCkjP8iLu_ngS16PPi-55">
          <mxGeometry as="geometry" relative="1" />
        </mxCell>
        <mxCell id="BtzCkjP8iLu_ngS16PPi-64" value="留在本页" parent="BtzCkjP8iLu_ngS16PPi-79" style="edgeStyle=orthogonalEdgeStyle;rounded=0;orthogonalLoop=1;jettySize=auto;html=1;strokeColor=#000000;fontColor=#000000;" edge="1" source="BtzCkjP8iLu_ngS16PPi-58" target="BtzCkjP8iLu_ngS16PPi-55">
          <mxGeometry as="geometry" relative="1" />
        </mxCell>
        <mxCell id="BtzCkjP8iLu_ngS16PPi-65" value="继续注册" parent="BtzCkjP8iLu_ngS16PPi-79" style="edgeStyle=orthogonalEdgeStyle;rounded=0;orthogonalLoop=1;jettySize=auto;html=1;strokeColor=#000000;fontColor=#000000;" edge="1" source="BtzCkjP8iLu_ngS16PPi-59" target="BtzCkjP8iLu_ngS16PPi-55">
          <mxGeometry as="geometry" relative="1" />
        </mxCell>
        <mxCell id="BtzCkjP8iLu_ngS16PPi-76" value="判断账号密码是否合法" parent="BtzCkjP8iLu_ngS16PPi-79" style="rhombus;whiteSpace=wrap;html=1;" vertex="1">
          <mxGeometry as="geometry" width="140" height="60" x="480" y="580" />
        </mxCell>
        <mxCell id="BtzCkjP8iLu_ngS16PPi-75" value="" parent="BtzCkjP8iLu_ngS16PPi-79" style="edgeStyle=orthogonalEdgeStyle;rounded=0;orthogonalLoop=1;jettySize=auto;html=1;strokeColor=#000000;fontColor=#000000;entryX=0.5;entryY=0;entryDx=0;entryDy=0;" edge="1" source="BtzCkjP8iLu_ngS16PPi-55" target="BtzCkjP8iLu_ngS16PPi-76">
          <mxGeometry as="geometry" relative="1">
            <mxPoint as="targetPoint" x="550" y="610" />
          </mxGeometry>
        </mxCell>
        <mxCell id="BtzCkjP8iLu_ngS16PPi-78" value="" parent="BtzCkjP8iLu_ngS16PPi-79" style="edgeStyle=orthogonalEdgeStyle;rounded=0;orthogonalLoop=1;jettySize=auto;html=1;strokeColor=#000000;fontColor=#000000;" edge="1" source="BtzCkjP8iLu_ngS16PPi-76" target="BtzCkjP8iLu_ngS16PPi-77">
          <mxGeometry as="geometry" relative="1" />
        </mxCell>
        <mxCell id="MhPxkwkBFrwkq3BctRBv-1" value="" parent="BtzCkjP8iLu_ngS16PPi-79" style="curved=1;endArrow=classic;html=1;" edge="1">
          <mxGeometry as="geometry" width="50" height="50" relative="1">
            <mxPoint as="sourcePoint" x="60" y="520" />
            <mxPoint as="targetPoint" x="110" y="470" />
            <Array as="points">
              <mxPoint x="110" y="520" />
              <mxPoint x="60" y="470" />
            </Array>
          </mxGeometry>
        </mxCell>
      </root>
    </mxGraphModel>
  </diagram>
  <diagram id="aAUQ73yhg0GtWeSCeEzm" name="游客账号登录流程">
    <mxGraphModel grid="1" dx="1673" dy="932" gridSize="10" guides="1" tooltips="1" connect="1" arrows="1" fold="1" page="1" pageScale="1" pageWidth="1169" pageHeight="1654" math="0" shadow="0">
      <root>
        <mxCell id="Bp47KcvQ85Blp-BONygI-0" />
        <mxCell id="Bp47KcvQ85Blp-BONygI-1" parent="Bp47KcvQ85Blp-BONygI-0" />
        <mxCell id="Bp47KcvQ85Blp-BONygI-13" value="游客账号登录流程" parent="Bp47KcvQ85Blp-BONygI-1" style="swimlane;html=1;childLayout=stackLayout;resizeParent=1;resizeParentMax=0;horizontal=1;startSize=30;horizontalStack=0;fontSize=16;" vertex="1">
          <mxGeometry as="geometry" width="1700" height="610" x="50" y="420">
            <mxRectangle as="alternateBounds" width="60" height="20" x="50" y="420" />
          </mxGeometry>
        </mxCell>
        <mxCell id="Bp47KcvQ85Blp-BONygI-49" value="用户" parent="Bp47KcvQ85Blp-BONygI-13" style="swimlane;html=1;startSize=20;horizontal=0;fontSize=14;" vertex="1">
          <mxGeometry as="geometry" width="1700" height="210" y="30">
            <mxRectangle as="alternateBounds" width="1700" height="20" y="30" />
          </mxGeometry>
        </mxCell>
        <mxCell id="50fYcwsE3Q7ma6wqrAO6-69" value="游客登录流程" parent="Bp47KcvQ85Blp-BONygI-49" style="text;html=1;strokeColor=none;fillColor=none;align=center;verticalAlign=middle;whiteSpace=wrap;rounded=0;shadow=0;sketch=0;fontFamily=Verdana;fontSize=18;labelBackgroundColor=#E6E6E6;" vertex="1">
          <mxGeometry as="geometry" width="140" height="40" x="150" y="20" />
        </mxCell>
        <mxCell id="50fYcwsE3Q7ma6wqrAO6-70" value="通用登录流程" parent="Bp47KcvQ85Blp-BONygI-49" style="text;html=1;strokeColor=none;fillColor=none;align=center;verticalAlign=middle;whiteSpace=wrap;rounded=0;shadow=0;sketch=0;fontFamily=Verdana;fontSize=18;labelBackgroundColor=#E6E6E6;" vertex="1">
          <mxGeometry as="geometry" width="140" height="40" x="979" y="20" />
        </mxCell>
        <mxCell id="Bp47KcvQ85Blp-BONygI-59" value="游客账号登录" parent="Bp47KcvQ85Blp-BONygI-49" style="rounded=1;whiteSpace=wrap;html=1;" vertex="1">
          <mxGeometry as="geometry" width="140" height="60" x="30" y="90" />
        </mxCell>
        <mxCell id="50fYcwsE3Q7ma6wqrAO6-95" value="" parent="Bp47KcvQ85Blp-BONygI-49" style="edgeStyle=orthogonalEdgeStyle;rounded=0;orthogonalLoop=1;jettySize=auto;html=1;strokeWidth=1;fontFamily=Verdana;fontSize=11;" edge="1" source="50fYcwsE3Q7ma6wqrAO6-87" target="50fYcwsE3Q7ma6wqrAO6-93">
          <mxGeometry as="geometry" relative="1" />
        </mxCell>
        <mxCell id="50fYcwsE3Q7ma6wqrAO6-87" value="实名验证流程" parent="Bp47KcvQ85Blp-BONygI-49" style="shape=process;whiteSpace=wrap;html=1;backgroundOutline=1;shadow=0;labelBackgroundColor=none;sketch=0;fontFamily=Verdana;fontSize=12;" vertex="1">
          <mxGeometry as="geometry" width="140" height="60" x="1360" y="100" />
        </mxCell>
        <mxCell id="50fYcwsE3Q7ma6wqrAO6-76" value="&lt;span style=&#39;font: 12px/1.2 &quot;helvetica&quot;; text-align: center; color: rgb(0, 0, 0); text-transform: none; text-indent: 0px; letter-spacing: normal; text-decoration: none; word-spacing: 0px; display: inline; font-size-adjust: none; font-stretch: normal; float: none; overflow-wrap: normal;&#39;&gt;游客升级完成/取消升级&lt;/span&gt;" parent="Bp47KcvQ85Blp-BONygI-49" style="shape=process;whiteSpace=wrap;html=1;backgroundOutline=1;shadow=0;labelBackgroundColor=none;sketch=0;fontFamily=Verdana;fontSize=14;" vertex="1">
          <mxGeometry as="geometry" width="140" height="60" x="790" y="100" />
        </mxCell>
        <mxCell id="50fYcwsE3Q7ma6wqrAO6-79" value="&lt;span style=&quot;font: 12px / 1.2 &amp;#34;helvetica&amp;#34; ; text-align: center ; color: rgb(0 , 0 , 0) ; text-transform: none ; text-indent: 0px ; letter-spacing: normal ; text-decoration: none ; word-spacing: 0px ; display: inline ; float: none ; overflow-wrap: normal ; background-color: rgb(248 , 249 , 250)&quot;&gt;安全手机绑定完成&lt;/span&gt;&lt;br style=&quot;text-align: center ; color: rgb(0 , 0 , 0) ; text-transform: none ; text-indent: 0px ; letter-spacing: normal ; font-family: &amp;#34;helvetica&amp;#34; ; font-size: 12px ; font-style: normal ; font-variant: normal ; font-weight: 400 ; text-decoration: none ; word-spacing: 0px&quot;&gt;&lt;span style=&quot;font: 12px / 1.2 &amp;#34;helvetica&amp;#34; ; text-align: center ; color: rgb(0 , 0 , 0) ; text-transform: none ; text-indent: 0px ; letter-spacing: normal ; text-decoration: none ; word-spacing: 0px ; display: inline ; float: none ; overflow-wrap: normal ; background-color: rgb(248 , 249 , 250)&quot;&gt;/取消绑定&lt;/span&gt;" parent="Bp47KcvQ85Blp-BONygI-49" style="shape=process;whiteSpace=wrap;html=1;backgroundOutline=1;shadow=0;labelBackgroundColor=none;sketch=0;fontFamily=Verdana;fontSize=14;" vertex="1">
          <mxGeometry as="geometry" width="140" height="60" x="1139" y="100" />
        </mxCell>
        <mxCell id="50fYcwsE3Q7ma6wqrAO6-93" value="登录成功" parent="Bp47KcvQ85Blp-BONygI-49" style="rounded=1;whiteSpace=wrap;html=1;" vertex="1">
          <mxGeometry as="geometry" width="140" height="60" x="1540" y="100" />
        </mxCell>
        <mxCell id="Bp47KcvQ85Blp-BONygI-19" parent="Bp47KcvQ85Blp-BONygI-13" style="edgeStyle=orthogonalEdgeStyle;rounded=0;orthogonalLoop=1;jettySize=auto;html=1;" edge="1" source="Bp47KcvQ85Blp-BONygI-5" target="Bp47KcvQ85Blp-BONygI-4">
          <mxGeometry as="geometry" relative="1" />
        </mxCell>
        <mxCell id="Bp47KcvQ85Blp-BONygI-41" value="发送设备ID等信息" parent="Bp47KcvQ85Blp-BONygI-19" style="edgeLabel;html=1;align=center;verticalAlign=middle;resizable=0;points=[];" vertex="1" connectable="0">
          <mxGeometry as="geometry" x="-0.6667" y="-3" relative="1">
            <mxPoint as="offset" />
          </mxGeometry>
        </mxCell>
        <mxCell id="Bp47KcvQ85Blp-BONygI-44" parent="Bp47KcvQ85Blp-BONygI-13" style="edgeStyle=orthogonalEdgeStyle;rounded=0;orthogonalLoop=1;jettySize=auto;html=1;entryX=0;entryY=0.5;entryDx=0;entryDy=0;exitX=0.5;exitY=0;exitDx=0;exitDy=0;" edge="1" source="Bp47KcvQ85Blp-BONygI-32" target="50fYcwsE3Q7ma6wqrAO6-76">
          <mxGeometry as="geometry" relative="1">
            <mxPoint as="targetPoint" x="819.9999999999995" y="140" />
          </mxGeometry>
        </mxCell>
        <mxCell id="Bp47KcvQ85Blp-BONygI-46" parent="Bp47KcvQ85Blp-BONygI-13" style="edgeStyle=orthogonalEdgeStyle;rounded=0;orthogonalLoop=1;jettySize=auto;html=1;exitX=0.5;exitY=1;exitDx=0;exitDy=0;" edge="1" source="50fYcwsE3Q7ma6wqrAO6-76" target="Bp47KcvQ85Blp-BONygI-36">
          <mxGeometry as="geometry" relative="1">
            <mxPoint as="sourcePoint" x="889.9999999999995" y="170" />
          </mxGeometry>
        </mxCell>
        <mxCell id="Bp47KcvQ85Blp-BONygI-77" parent="Bp47KcvQ85Blp-BONygI-13" style="edgeStyle=orthogonalEdgeStyle;rounded=0;orthogonalLoop=1;jettySize=auto;html=1;entryX=0.5;entryY=0;entryDx=0;entryDy=0;exitX=0.5;exitY=1;exitDx=0;exitDy=0;" edge="1" source="50fYcwsE3Q7ma6wqrAO6-79" target="Bp47KcvQ85Blp-BONygI-72">
          <mxGeometry as="geometry" relative="1">
            <mxPoint as="sourcePoint" x="1259" y="170" />
          </mxGeometry>
        </mxCell>
        <mxCell id="Bp47KcvQ85Blp-BONygI-14" value="移动端" parent="Bp47KcvQ85Blp-BONygI-13" style="swimlane;html=1;startSize=20;horizontal=0;fontSize=14;" vertex="1">
          <mxGeometry as="geometry" width="1700" height="180" y="240">
            <mxRectangle as="alternateBounds" width="1380" height="20" y="20" />
          </mxGeometry>
        </mxCell>
        <mxCell id="Bp47KcvQ85Blp-BONygI-32" value="弹出账号升级页面" parent="Bp47KcvQ85Blp-BONygI-14" style="rounded=0;whiteSpace=wrap;html=1;" vertex="1">
          <mxGeometry as="geometry" width="140" height="60" x="640" y="20" />
        </mxCell>
        <mxCell id="50fYcwsE3Q7ma6wqrAO6-86" value="弹出实名验证页面" parent="Bp47KcvQ85Blp-BONygI-14" style="rounded=0;whiteSpace=wrap;html=1;" vertex="1">
          <mxGeometry as="geometry" width="140" height="60" x="1360" y="20" />
        </mxCell>
        <mxCell id="Bp47KcvQ85Blp-BONygI-21" value="判断是否需要游客升级" parent="Bp47KcvQ85Blp-BONygI-14" style="rhombus;whiteSpace=wrap;html=1;" vertex="1">
          <mxGeometry as="geometry" width="140" height="80" x="440" y="50" />
        </mxCell>
        <mxCell id="Bp47KcvQ85Blp-BONygI-5" value="发登录请求" parent="Bp47KcvQ85Blp-BONygI-14" style="rounded=0;whiteSpace=wrap;html=1;" vertex="1">
          <mxGeometry as="geometry" width="140" height="60" x="30" y="60" />
        </mxCell>
        <mxCell id="Bp47KcvQ85Blp-BONygI-37" parent="Bp47KcvQ85Blp-BONygI-14" style="edgeStyle=orthogonalEdgeStyle;rounded=0;orthogonalLoop=1;jettySize=auto;html=1;entryX=0.5;entryY=1;entryDx=0;entryDy=0;" edge="1" source="Bp47KcvQ85Blp-BONygI-21" target="Bp47KcvQ85Blp-BONygI-36">
          <mxGeometry as="geometry" relative="1">
            <Array as="points">
              <mxPoint x="610" y="90" />
              <mxPoint x="610" y="150" />
              <mxPoint x="860" y="150" />
            </Array>
          </mxGeometry>
        </mxCell>
        <mxCell id="Bp47KcvQ85Blp-BONygI-43" value="否" parent="Bp47KcvQ85Blp-BONygI-37" style="edgeLabel;html=1;align=center;verticalAlign=middle;resizable=0;points=[];" vertex="1" connectable="0">
          <mxGeometry as="geometry" x="0.4923" y="1" relative="1">
            <mxPoint as="offset" />
          </mxGeometry>
        </mxCell>
        <mxCell id="Bp47KcvQ85Blp-BONygI-66" parent="Bp47KcvQ85Blp-BONygI-14" style="edgeStyle=orthogonalEdgeStyle;rounded=0;orthogonalLoop=1;jettySize=auto;html=1;entryX=0;entryY=0.5;entryDx=0;entryDy=0;exitX=1;exitY=0.5;exitDx=0;exitDy=0;" edge="1" source="Bp47KcvQ85Blp-BONygI-36" target="Bp47KcvQ85Blp-BONygI-65">
          <mxGeometry as="geometry" relative="1">
            <Array as="points">
              <mxPoint x="960" y="90" />
              <mxPoint x="960" y="50" />
            </Array>
          </mxGeometry>
        </mxCell>
        <mxCell id="Bp47KcvQ85Blp-BONygI-70" value="是" parent="Bp47KcvQ85Blp-BONygI-66" style="edgeLabel;html=1;align=center;verticalAlign=middle;resizable=0;points=[];" vertex="1" connectable="0">
          <mxGeometry as="geometry" x="0.3566" y="-2" relative="1">
            <mxPoint as="offset" />
          </mxGeometry>
        </mxCell>
        <mxCell id="Bp47KcvQ85Blp-BONygI-63" parent="Bp47KcvQ85Blp-BONygI-14" style="edgeStyle=orthogonalEdgeStyle;rounded=0;orthogonalLoop=1;jettySize=auto;html=1;entryX=0;entryY=0.5;entryDx=0;entryDy=0;" edge="1" source="Bp47KcvQ85Blp-BONygI-21" target="Bp47KcvQ85Blp-BONygI-32">
          <mxGeometry as="geometry" relative="1">
            <Array as="points">
              <mxPoint x="610" y="90" />
              <mxPoint x="610" y="50" />
            </Array>
          </mxGeometry>
        </mxCell>
        <mxCell id="Bp47KcvQ85Blp-BONygI-64" value="是" parent="Bp47KcvQ85Blp-BONygI-63" style="edgeLabel;html=1;align=center;verticalAlign=middle;resizable=0;points=[];" vertex="1" connectable="0">
          <mxGeometry as="geometry" x="-0.1796" y="-1" relative="1">
            <mxPoint as="offset" />
          </mxGeometry>
        </mxCell>
        <mxCell id="Bp47KcvQ85Blp-BONygI-74" parent="Bp47KcvQ85Blp-BONygI-14" style="edgeStyle=orthogonalEdgeStyle;rounded=0;orthogonalLoop=1;jettySize=auto;html=1;entryX=0.5;entryY=1;entryDx=0;entryDy=0;exitX=1;exitY=0.5;exitDx=0;exitDy=0;" edge="1" source="Bp47KcvQ85Blp-BONygI-36" target="Bp47KcvQ85Blp-BONygI-72">
          <mxGeometry as="geometry" relative="1">
            <Array as="points">
              <mxPoint x="960" y="90" />
              <mxPoint x="960" y="150" />
              <mxPoint x="1209" y="150" />
            </Array>
          </mxGeometry>
        </mxCell>
        <mxCell id="Bp47KcvQ85Blp-BONygI-75" value="否" parent="Bp47KcvQ85Blp-BONygI-74" style="edgeLabel;html=1;align=center;verticalAlign=middle;resizable=0;points=[];" vertex="1" connectable="0">
          <mxGeometry as="geometry" x="-0.0949" y="1" relative="1">
            <mxPoint as="offset" />
          </mxGeometry>
        </mxCell>
        <mxCell id="50fYcwsE3Q7ma6wqrAO6-88" value="是" parent="Bp47KcvQ85Blp-BONygI-14" style="edgeStyle=orthogonalEdgeStyle;orthogonalLoop=1;jettySize=auto;html=1;entryX=0;entryY=0.5;entryDx=0;entryDy=0;strokeWidth=1;fontFamily=Verdana;fontSize=11;rounded=0;" edge="1" source="Bp47KcvQ85Blp-BONygI-72" target="50fYcwsE3Q7ma6wqrAO6-86">
          <mxGeometry as="geometry" relative="1">
            <Array as="points">
              <mxPoint x="1320" y="90" />
              <mxPoint x="1320" y="50" />
            </Array>
          </mxGeometry>
        </mxCell>
        <mxCell id="50fYcwsE3Q7ma6wqrAO6-67" value="" parent="Bp47KcvQ85Blp-BONygI-14" style="endArrow=none;dashed=1;html=1;strokeWidth=2;fillColor=#f8cecc;strokeColor=#b85450;" edge="1">
          <mxGeometry as="geometry" width="50" height="50" relative="1">
            <mxPoint as="sourcePoint" x="420" y="370" />
            <mxPoint as="targetPoint" x="420" y="-210" />
          </mxGeometry>
        </mxCell>
        <mxCell id="Bp47KcvQ85Blp-BONygI-36" value="判断是否需要&lt;br&gt;绑定安全手机" parent="Bp47KcvQ85Blp-BONygI-14" style="rhombus;whiteSpace=wrap;html=1;" vertex="1">
          <mxGeometry as="geometry" width="140" height="80" x="790" y="50" />
        </mxCell>
        <mxCell id="Bp47KcvQ85Blp-BONygI-65" value="弹出绑定安全手机页面" parent="Bp47KcvQ85Blp-BONygI-14" style="rounded=0;whiteSpace=wrap;html=1;" vertex="1">
          <mxGeometry as="geometry" width="140" height="60" x="987" y="20" />
        </mxCell>
        <mxCell id="Bp47KcvQ85Blp-BONygI-72" value="判断是否需要实名验证" parent="Bp47KcvQ85Blp-BONygI-14" style="rhombus;whiteSpace=wrap;html=1;" vertex="1">
          <mxGeometry as="geometry" width="140" height="80" x="1139" y="50" />
        </mxCell>
        <mxCell id="Bp47KcvQ85Blp-BONygI-15" value="服务器" parent="Bp47KcvQ85Blp-BONygI-13" style="swimlane;html=1;startSize=20;horizontal=0;fontSize=14;" vertex="1">
          <mxGeometry as="geometry" width="1700" height="190" y="420" />
        </mxCell>
        <mxCell id="Bp47KcvQ85Blp-BONygI-9" value="是" parent="Bp47KcvQ85Blp-BONygI-15" style="edgeStyle=orthogonalEdgeStyle;rounded=0;orthogonalLoop=1;jettySize=auto;html=1;exitX=1;exitY=0.5;exitDx=0;exitDy=0;" edge="1" source="Bp47KcvQ85Blp-BONygI-4" target="Bp47KcvQ85Blp-BONygI-7">
          <mxGeometry as="geometry" relative="1" />
        </mxCell>
        <mxCell id="Bp47KcvQ85Blp-BONygI-11" parent="Bp47KcvQ85Blp-BONygI-15" style="edgeStyle=orthogonalEdgeStyle;rounded=0;orthogonalLoop=1;jettySize=auto;html=1;exitX=1;exitY=0.5;exitDx=0;exitDy=0;" edge="1" source="Bp47KcvQ85Blp-BONygI-4" target="Bp47KcvQ85Blp-BONygI-8">
          <mxGeometry as="geometry" relative="1" />
        </mxCell>
        <mxCell id="Bp47KcvQ85Blp-BONygI-12" value="否" parent="Bp47KcvQ85Blp-BONygI-11" style="edgeLabel;html=1;align=center;verticalAlign=middle;resizable=0;points=[];" vertex="1" connectable="0">
          <mxGeometry as="geometry" x="-0.0333" y="2" relative="1">
            <mxPoint as="offset" />
          </mxGeometry>
        </mxCell>
        <mxCell id="Bp47KcvQ85Blp-BONygI-7" value="生成新游客账号" parent="Bp47KcvQ85Blp-BONygI-15" style="rounded=0;whiteSpace=wrap;html=1;" vertex="1">
          <mxGeometry as="geometry" width="140" height="60" x="247.94" y="25" />
        </mxCell>
        <mxCell id="Bp47KcvQ85Blp-BONygI-8" value="查找历史游客信息" parent="Bp47KcvQ85Blp-BONygI-15" style="rounded=0;whiteSpace=wrap;html=1;" vertex="1">
          <mxGeometry as="geometry" width="140" height="60" x="247.94" y="115" />
        </mxCell>
        <mxCell id="Bp47KcvQ85Blp-BONygI-4" value="判断是否首次登录" parent="Bp47KcvQ85Blp-BONygI-15" style="rhombus;whiteSpace=wrap;html=1;" vertex="1">
          <mxGeometry as="geometry" width="140" height="80" x="30" y="60" />
        </mxCell>
        <mxCell id="Bp47KcvQ85Blp-BONygI-38" parent="Bp47KcvQ85Blp-BONygI-13" style="edgeStyle=orthogonalEdgeStyle;rounded=0;orthogonalLoop=1;jettySize=auto;html=1;entryX=0.5;entryY=1;entryDx=0;entryDy=0;" edge="1" source="Bp47KcvQ85Blp-BONygI-7" target="Bp47KcvQ85Blp-BONygI-21">
          <mxGeometry as="geometry" relative="1" />
        </mxCell>
        <mxCell id="Bp47KcvQ85Blp-BONygI-48" parent="Bp47KcvQ85Blp-BONygI-13" style="edgeStyle=orthogonalEdgeStyle;rounded=0;orthogonalLoop=1;jettySize=auto;html=1;entryX=0.5;entryY=1;entryDx=0;entryDy=0;" edge="1" source="Bp47KcvQ85Blp-BONygI-8" target="Bp47KcvQ85Blp-BONygI-21">
          <mxGeometry as="geometry" relative="1" />
        </mxCell>
        <mxCell id="Bp47KcvQ85Blp-BONygI-68" value="发送用户信息" parent="Bp47KcvQ85Blp-BONygI-48" style="edgeLabel;html=1;align=center;verticalAlign=middle;resizable=0;points=[];" vertex="1" connectable="0">
          <mxGeometry as="geometry" x="0.3862" y="-3" relative="1">
            <mxPoint as="offset" />
          </mxGeometry>
        </mxCell>
        <mxCell id="50fYcwsE3Q7ma6wqrAO6-44" parent="Bp47KcvQ85Blp-BONygI-13" style="edgeStyle=orthogonalEdgeStyle;rounded=0;orthogonalLoop=1;jettySize=auto;html=1;exitX=0.5;exitY=1;exitDx=0;exitDy=0;" edge="1" source="Bp47KcvQ85Blp-BONygI-59" target="Bp47KcvQ85Blp-BONygI-5">
          <mxGeometry as="geometry" relative="1" />
        </mxCell>
        <mxCell id="50fYcwsE3Q7ma6wqrAO6-91" parent="Bp47KcvQ85Blp-BONygI-13" style="edgeStyle=orthogonalEdgeStyle;rounded=0;orthogonalLoop=1;jettySize=auto;html=1;entryX=0;entryY=0.5;entryDx=0;entryDy=0;strokeWidth=1;fontFamily=Verdana;fontSize=11;exitX=0.5;exitY=0;exitDx=0;exitDy=0;" edge="1" source="Bp47KcvQ85Blp-BONygI-65" target="50fYcwsE3Q7ma6wqrAO6-79">
          <mxGeometry as="geometry" relative="1" />
        </mxCell>
        <mxCell id="50fYcwsE3Q7ma6wqrAO6-92" parent="Bp47KcvQ85Blp-BONygI-13" style="edgeStyle=orthogonalEdgeStyle;rounded=0;orthogonalLoop=1;jettySize=auto;html=1;entryX=0.5;entryY=1;entryDx=0;entryDy=0;strokeWidth=1;fontFamily=Verdana;fontSize=11;exitX=0.5;exitY=0;exitDx=0;exitDy=0;" edge="1" source="50fYcwsE3Q7ma6wqrAO6-86" target="50fYcwsE3Q7ma6wqrAO6-87">
          <mxGeometry as="geometry" relative="1" />
        </mxCell>
        <mxCell id="50fYcwsE3Q7ma6wqrAO6-89" parent="Bp47KcvQ85Blp-BONygI-13" style="edgeStyle=orthogonalEdgeStyle;rounded=0;orthogonalLoop=1;jettySize=auto;html=1;entryX=0.5;entryY=1;entryDx=0;entryDy=0;strokeWidth=1;fontFamily=Verdana;fontSize=16;" edge="1" source="Bp47KcvQ85Blp-BONygI-72" target="50fYcwsE3Q7ma6wqrAO6-93">
          <mxGeometry as="geometry" relative="1">
            <mxPoint as="targetPoint" x="1649" y="370" />
            <Array as="points">
              <mxPoint x="1320" y="330" />
              <mxPoint x="1320" y="390" />
              <mxPoint x="1610" y="390" />
            </Array>
          </mxGeometry>
        </mxCell>
        <mxCell id="50fYcwsE3Q7ma6wqrAO6-90" value="否" parent="50fYcwsE3Q7ma6wqrAO6-89" style="edgeLabel;html=1;align=center;verticalAlign=middle;resizable=0;points=[];fontSize=11;fontFamily=Verdana;" vertex="1" connectable="0">
          <mxGeometry as="geometry" x="-0.48" y="2" relative="1">
            <mxPoint as="offset" />
          </mxGeometry>
        </mxCell>
      </root>
    </mxGraphModel>
  </diagram>
  <diagram id="v0-zn_GZDGVr-B_VaP3T" name="游客升级">
    <mxGraphModel grid="1" dx="813" dy="453" gridSize="10" guides="1" tooltips="1" connect="1" arrows="1" fold="1" page="1" pageScale="1" pageWidth="1169" pageHeight="1654" math="0" shadow="0">
      <root>
        <mxCell id="_WdI8KaVdCBwMsiBsIQj-0" />
        <mxCell id="_WdI8KaVdCBwMsiBsIQj-1" parent="_WdI8KaVdCBwMsiBsIQj-0" />
        <mxCell id="_WdI8KaVdCBwMsiBsIQj-5" parent="_WdI8KaVdCBwMsiBsIQj-1" style="edgeStyle=orthogonalEdgeStyle;rounded=0;orthogonalLoop=1;jettySize=auto;html=1;entryX=0.5;entryY=0;entryDx=0;entryDy=0;" edge="1" target="_WdI8KaVdCBwMsiBsIQj-3">
          <mxGeometry as="geometry" relative="1">
            <mxPoint as="sourcePoint" x="380" y="270" />
            <Array as="points">
              <mxPoint x="380" y="290" />
              <mxPoint x="220" y="290" />
            </Array>
          </mxGeometry>
        </mxCell>
        <mxCell id="_WdI8KaVdCBwMsiBsIQj-6" parent="_WdI8KaVdCBwMsiBsIQj-1" style="edgeStyle=orthogonalEdgeStyle;rounded=0;orthogonalLoop=1;jettySize=auto;html=1;entryX=0.5;entryY=0;entryDx=0;entryDy=0;" edge="1" source="_WdI8KaVdCBwMsiBsIQj-2" target="_WdI8KaVdCBwMsiBsIQj-4">
          <mxGeometry as="geometry" relative="1">
            <Array as="points">
              <mxPoint x="380" y="290" />
              <mxPoint x="520" y="290" />
            </Array>
          </mxGeometry>
        </mxCell>
        <mxCell id="_WdI8KaVdCBwMsiBsIQj-2" value="游客登录" parent="_WdI8KaVdCBwMsiBsIQj-1" style="rounded=1;whiteSpace=wrap;html=1;" vertex="1">
          <mxGeometry as="geometry" width="140" height="60" x="310" y="210" />
        </mxCell>
        <mxCell id="_WdI8KaVdCBwMsiBsIQj-8" value="" parent="_WdI8KaVdCBwMsiBsIQj-1" style="edgeStyle=orthogonalEdgeStyle;rounded=0;orthogonalLoop=1;jettySize=auto;html=1;" edge="1" source="_WdI8KaVdCBwMsiBsIQj-3" target="_WdI8KaVdCBwMsiBsIQj-7">
          <mxGeometry as="geometry" relative="1" />
        </mxCell>
        <mxCell id="_WdI8KaVdCBwMsiBsIQj-3" value="绑定手机" parent="_WdI8KaVdCBwMsiBsIQj-1" style="rounded=0;whiteSpace=wrap;html=1;" vertex="1">
          <mxGeometry as="geometry" width="140" height="60" x="150" y="320" />
        </mxCell>
        <mxCell id="_WdI8KaVdCBwMsiBsIQj-15" parent="_WdI8KaVdCBwMsiBsIQj-1" style="edgeStyle=orthogonalEdgeStyle;rounded=0;orthogonalLoop=1;jettySize=auto;html=1;entryX=0.5;entryY=0;entryDx=0;entryDy=0;" edge="1" source="_WdI8KaVdCBwMsiBsIQj-7" target="_WdI8KaVdCBwMsiBsIQj-14">
          <mxGeometry as="geometry" relative="1" />
        </mxCell>
        <mxCell id="_WdI8KaVdCBwMsiBsIQj-7" value="设置个性登录名" parent="_WdI8KaVdCBwMsiBsIQj-1" style="rounded=0;whiteSpace=wrap;html=1;" vertex="1">
          <mxGeometry as="geometry" width="140" height="60" x="150" y="430" />
        </mxCell>
        <mxCell id="_WdI8KaVdCBwMsiBsIQj-19" parent="_WdI8KaVdCBwMsiBsIQj-1" style="edgeStyle=orthogonalEdgeStyle;rounded=0;orthogonalLoop=1;jettySize=auto;html=1;" edge="1" source="_WdI8KaVdCBwMsiBsIQj-4" target="_WdI8KaVdCBwMsiBsIQj-16">
          <mxGeometry as="geometry" relative="1" />
        </mxCell>
        <mxCell id="_WdI8KaVdCBwMsiBsIQj-23" value="无账号/绑定失败" parent="_WdI8KaVdCBwMsiBsIQj-19" style="edgeLabel;html=1;align=center;verticalAlign=middle;resizable=0;points=[];" vertex="1" connectable="0">
          <mxGeometry as="geometry" x="0.4062" y="-1" relative="1">
            <mxPoint as="offset" />
          </mxGeometry>
        </mxCell>
        <mxCell id="_WdI8KaVdCBwMsiBsIQj-21" parent="_WdI8KaVdCBwMsiBsIQj-1" style="edgeStyle=orthogonalEdgeStyle;rounded=0;orthogonalLoop=1;jettySize=auto;html=1;entryX=0.5;entryY=0;entryDx=0;entryDy=0;" edge="1" source="_WdI8KaVdCBwMsiBsIQj-4" target="_WdI8KaVdCBwMsiBsIQj-20">
          <mxGeometry as="geometry" relative="1" />
        </mxCell>
        <mxCell id="_WdI8KaVdCBwMsiBsIQj-24" value="&lt;span style=&quot;font: 11px / 1.2 &amp;#34;helvetica&amp;#34; ; text-align: center ; color: rgb(0 , 0 , 0) ; text-transform: none ; text-indent: 0px ; letter-spacing: normal ; text-decoration: none ; word-spacing: 0px ; display: inline ; float: none ; overflow-wrap: normal ; background-color: rgb(255 , 255 , 255)&quot;&gt;绑定成功&lt;/span&gt;" parent="_WdI8KaVdCBwMsiBsIQj-21" style="edgeLabel;html=1;align=center;verticalAlign=middle;resizable=0;points=[];" vertex="1" connectable="0">
          <mxGeometry as="geometry" x="0.5882" y="-1" relative="1">
            <mxPoint as="offset" />
          </mxGeometry>
        </mxCell>
        <mxCell id="_WdI8KaVdCBwMsiBsIQj-4" value="绑定已有冰川账号" parent="_WdI8KaVdCBwMsiBsIQj-1" style="rounded=0;whiteSpace=wrap;html=1;" vertex="1">
          <mxGeometry as="geometry" width="140" height="60" x="450" y="320" />
        </mxCell>
        <mxCell id="_WdI8KaVdCBwMsiBsIQj-14" value="设置密码" parent="_WdI8KaVdCBwMsiBsIQj-1" style="rounded=0;whiteSpace=wrap;html=1;" vertex="1">
          <mxGeometry as="geometry" width="140" height="60" x="150" y="540" />
        </mxCell>
        <mxCell id="_WdI8KaVdCBwMsiBsIQj-18" value="" parent="_WdI8KaVdCBwMsiBsIQj-1" style="edgeStyle=orthogonalEdgeStyle;rounded=0;orthogonalLoop=1;jettySize=auto;html=1;" edge="1" source="_WdI8KaVdCBwMsiBsIQj-16" target="_WdI8KaVdCBwMsiBsIQj-17">
          <mxGeometry as="geometry" relative="1" />
        </mxCell>
        <mxCell id="_WdI8KaVdCBwMsiBsIQj-16" value="增加注册入口" parent="_WdI8KaVdCBwMsiBsIQj-1" style="rounded=0;whiteSpace=wrap;html=1;" vertex="1">
          <mxGeometry as="geometry" width="140" height="60" x="530" y="430" />
        </mxCell>
        <mxCell id="_WdI8KaVdCBwMsiBsIQj-17" value="增加注册入口" parent="_WdI8KaVdCBwMsiBsIQj-1" style="rounded=0;whiteSpace=wrap;html=1;" vertex="1">
          <mxGeometry as="geometry" width="140" height="60" x="530" y="540" />
        </mxCell>
        <mxCell id="_WdI8KaVdCBwMsiBsIQj-20" value="绑定成功" parent="_WdI8KaVdCBwMsiBsIQj-1" style="rounded=0;whiteSpace=wrap;html=1;" vertex="1">
          <mxGeometry as="geometry" width="140" height="60" x="360" y="430" />
        </mxCell>
      </root>
    </mxGraphModel>
  </diagram>
</mxfile>
